<?xml version="1.0" encoding="UTF-8" standalone="no"?>
<!-- Created with Inkscape (http://www.inkscape.org/) -->

<svg
   width="94.403107mm"
   height="103.99907mm"
   viewBox="0 0 94.403107 103.99907"
   version="1.1"
   id="svg1"
   xmlnsInkscape="http://www.inkscape.org/namespaces/inkscape"
   xmlnsSodipodi="http://sodipodi.sourceforge.net/DTD/sodipodi-0.dtd"
   xmlns="http://www.w3.org/2000/svg"
   xmlnsSvg="http://www.w3.org/2000/svg">
  <sodipodiNamedview
     id="namedview1"
     pagecolor="#ffffff"
     bordercolor="#000000"
     borderopacity="0.25"
     inkscapeShowpageshadow="2"
     inkscapePageopacity="0.0"
     inkscapePagecheckerboard="0"
     inkscapeDeskcolor="#d1d1d1"
     inkscapeDocument-units="mm"
     inkscapeZoom="1.0242632"
     inkscapeCx="361.23527"
     inkscapeCy="429.08892"
     inkscapeWindow-width="1920"
     inkscapeWindow-height="1009"
     inkscapeWindow-x="1912"
     inkscapeWindow-y="-8"
     inkscapeWindow-maximized="1"
     inkscapeCurrent-layer="layer1"
     inkscapeCxport-bgcolor="#ffffff00" />
  <defs
     id="defs1" />
  <g
     inkscapeLabel="Warstwa 1"
     inkscapeGroupmode="layer"
     id="layer1"
     transform="translate(-57.610803,-54.577158)">
    <g
       id="g10"
       style="stroke:#ffffff;stroke-opacity:0">
      <g
         id="g18"
         style="display:inline;mix-blend-mode:normal;fill:#000000;fill-opacity:1;fill-rule:nonzero;stroke:#000000;stroke-width:12.89;stroke-miterlimit:3.2;stroke-dasharray:none;stroke-dashoffset:0;stroke-opacity:1;paint-order:markers stroke fill"
         inkscapeLabel="g9">
        <path
           style="font-size:42.9665px;line-height:1.3;font-family:'League Gothic';-inkscape-font-specification:'League Gothic';text-align:center;letter-spacing:-1.32292px;word-spacing:0px;text-anchor:middle;white-space:pre;fill:#000000;fill-opacity:1;fill-rule:nonzero;stroke:#000000;stroke-width:12.89;stroke-miterlimit:3.2;stroke-dasharray:none;stroke-dashoffset:0;stroke-opacity:1;paint-order:markers stroke fill"
           d="m 76.264881,96.710227 q -1.856166,0.458722 -3.23613,0.158002 -1.385118,-0.321577 -2.38285,-1.314259 -0.997731,-0.992683 -1.717749,-2.562978 -0.699163,-1.575449 -1.209427,-3.640173 l 4.318345,-1.509805 q 0.247401,1.001079 0.541907,1.924127 0.310208,0.897038 0.683461,1.601459 0.388954,0.678411 0.872597,1.023608 0.504498,0.340042 1.109316,0.19057 1.001079,-0.247401 1.19141,-1.26814 0.185178,-1.041594 -0.139536,-2.35551 -0.324714,-1.313915 -1.363441,-2.562021 -1.038726,-1.248106 -2.312498,-2.283217 -2.162788,-1.766976 -3.852003,-3.319045 -1.66836,-1.557223 -2.799861,-3.180734 -1.110646,-1.628664 -1.59514,-3.589109 -0.38141,-1.543329 -0.30471,-2.934319 0.07155,-1.411845 0.585262,-2.556762 0.529418,-1.170928 1.47991,-1.981196 0.950493,-0.810269 2.347832,-1.1556 1.731031,-0.427798 3.064129,-0.137624 1.353953,0.285019 2.351924,1.189124 1.018827,0.898951 1.723621,2.318101 0.720496,1.393141 1.168911,3.207595 l -4.318346,1.509805 q -0.190705,-0.771665 -0.464833,-1.522713 -0.258426,-0.777058 -0.605909,-1.3772 -0.347482,-0.600142 -0.79996,-0.908781 -0.452478,-0.308638 -1.015585,-0.169475 -0.875943,0.216476 -1.024085,1.049751 -0.153296,0.81242 0.181726,2.168047 0.432952,1.751887 1.77349,3.146701 1.340538,1.394814 3.461614,3.172099 2.531843,2.096231 4.251505,3.95059 1.740518,1.849204 2.384792,4.456179 0.407181,1.647608 0.403117,3.153424 -0.0092,1.484959 -0.523172,2.718454 -0.4931,1.228341 -1.537563,2.106092 -1.023607,0.872597 -2.692071,1.284933 z M 89.585516,94.302272 Q 87.666141,94.535494 86.171088,93.808223 84.697363,93.078362 83.764361,91.633559 82.852686,90.186165 82.619465,88.26679 L 80.375351,69.798137 q -0.235813,-1.940702 0.305298,-3.542982 0.559846,-1.626197 1.815898,-2.687752 1.277378,-1.064147 3.196753,-1.297369 1.919375,-0.233222 3.393101,0.49664 1.495052,0.72727 2.406727,2.174664 0.933001,1.444803 1.166223,3.364178 l 2.244114,18.468653 q 0.233222,1.919375 -0.326624,3.545573 -0.53852,1.623606 -1.815898,2.687753 -1.256052,1.061555 -3.175427,1.294777 z M 89.041331,89.82373 q 0.853056,-0.103654 1.108763,-0.848887 0.253116,-0.766559 0.146871,-1.640941 L 88.052851,68.865249 q -0.106245,-0.874382 -0.554309,-1.5341 -0.450654,-0.681044 -1.261057,-0.582573 -0.789077,0.09588 -1.084846,0.867622 -0.277034,0.747824 -0.170788,1.622206 l 2.244114,18.468653 q 0.106245,0.874382 0.5569,1.555426 0.448063,0.659718 1.258466,0.561247 z m 14.744509,3.583124 q -1.95493,0.01322 -3.35741,-0.879622 -1.380993,-0.892983 -2.12186,-2.434804 -0.740869,-1.541822 -0.753938,-3.47527 l -0.169608,-25.091862 4.640266,-0.03137 0.16961,25.091862 q 0.006,0.923759 0.37624,1.630221 0.36986,0.68498 1.1862,0.679462 0.85931,-0.0058 1.19839,-0.69558 0.33893,-0.711255 0.33269,-1.635013 l -0.16961,-25.091863 4.64028,-0.03137 0.1696,25.091862 q 0.0131,1.933448 -0.72837,3.485289 -0.71996,1.551696 -2.11024,2.463411 -1.3688,0.911569 -3.30224,0.924638 z m 8.31334,-0.319362 3.57189,-31.377728 4.31176,0.490831 2.40781,16.836542 0.21899,1.495224 0.25614,0.02916 2.0265,-17.802059 4.22639,0.481112 -3.57189,31.377728 -3.88486,-0.442234 -2.83471,-16.885139 -0.21899,-1.495224 -0.25615,-0.02916 -2.0265,17.802058 z m 15.54816,1.900871 7.76315,-30.611335 4.58129,1.161831 q 2.16569,0.54923 3.48547,1.637483 1.31977,1.088252 1.80299,3.02819 0.48321,1.939937 0.12367,5.018114 -0.33871,3.083459 -1.48997,7.623099 -1.15655,4.560464 -2.32823,7.43268 -1.14556,2.856673 -2.49487,4.331878 -1.34402,1.454381 -3.0229,1.782163 -1.67361,0.306957 -3.83931,-0.242272 z m 5.6387,-3.357285 q 1.66592,0.422484 2.68582,-0.715156 1.0199,-1.13764 1.78355,-3.537085 0.76366,-2.399445 1.6139,-5.752115 0.86082,-3.394318 1.32237,-5.826049 0.46683,-2.452556 0.081,-3.902378 -0.35977,-1.465365 -2.00487,-1.882568 z"
           id="path12"
           ariaLabel="SOUND" />
        <path
           d="m 73.506548,126.81672 -7.591555,-26.41077 9.234785,-2.654459 1.14648,3.988569 -5.35402,1.53896 1.993429,6.93508 3.593302,-1.03287 1.14648,3.98857 -3.593302,1.03286 3.305167,11.49857 z m 15.000664,-3.27427 q -1.679865,0.26828 -3.003593,-0.31541 -1.305268,-0.58663 -2.14518,-1.81552 -0.839912,-1.22888 -1.10525,-2.89029 l -3.443491,-21.561349 3.987373,-0.63681 3.443491,21.561349 q 0.126772,0.79378 0.537884,1.35285 0.408163,0.5406 1.109645,0.42857 0.738403,-0.11793 0.939421,-0.75582 0.198071,-0.65636 0.0713,-1.45014 l -3.443491,-21.561349 3.987373,-0.63681 3.44349,21.561349 q 0.265338,1.66141 -0.168494,3.09372 -0.415372,1.42936 -1.491452,2.39631 -1.05762,0.96401 -2.719025,1.22935 z m 11.884538,-1.15862 q -1.662576,0.063 -2.785254,-0.437 -1.123386,-0.51866 -1.798157,-1.54072 -0.674771,-1.02205 -1.010888,-2.4872 -0.317436,-1.46586 -0.387497,-3.31524 l 3.946134,-0.52364 q 0.03397,0.89667 0.121856,1.73517 0.105861,0.81912 0.299463,1.48525 0.211576,0.64674 0.562688,1.0263 0.369793,0.37884 0.911535,0.35832 0.89667,-0.034 1.23914,-0.87007 0.34177,-0.85478 0.29718,-2.03166 -0.0446,-1.17688 -0.70917,-2.4238 -0.66458,-1.24693 -1.567057,-2.35389 -1.530687,-1.88759 -2.695827,-3.5084 -1.146459,-1.62153 -1.82378,-3.20471 -0.658641,-1.58389 -0.725164,-3.33986 -0.05237,-1.382366 0.258686,-2.55401 0.310347,-1.190324 0.950295,-2.075108 0.657921,-0.904173 1.610912,-1.426668 0.952991,-0.522496 2.204591,-0.569911 1.550494,-0.05874 2.635104,0.42398 1.10329,0.482011 1.79391,1.428633 0.7093,0.945914 1.05914,2.279595 0.36782,1.314291 0.42939,2.939499 l -3.94613,0.52365 q -0.0262,-0.69119 -0.1271,-1.37954 -0.0829,-0.707737 -0.27299,-1.280466 -0.19007,-0.572729 -0.52108,-0.91563 -0.33102,-0.342901 -0.835399,-0.323793 -0.784585,0.02972 -1.057998,0.713548 -0.27412,0.665144 -0.22812,1.879381 0.05945,1.56917 0.955273,2.99441 0.895824,1.42524 2.389154,3.31424 1.78698,2.23332 2.92467,4.11708 1.15636,1.88305 1.24483,4.21813 0.0559,1.47577 -0.21354,2.75808 -0.27016,1.26363 -0.92596,2.22384 -0.63711,0.95951 -1.68209,1.52291 -1.0263,0.56268 -2.52075,0.6193 z m 6.51386,-0.35325 1.28783,-27.449986 4.03347,0.189234 -1.28784,27.449982 z m 10.8909,1.20877 q -1.66669,-0.22977 -2.76319,-1.1735 -1.07798,-0.94119 -1.54233,-2.3639 -0.44582,-1.42016 -0.21605,-3.08686 l 2.2109,-16.03732 q 0.23233,-1.685216 1.04323,-2.913252 0.83198,-1.244002 2.12441,-1.858402 1.31095,-0.611846 2.97765,-0.382076 1.66669,0.229771 2.74467,1.170955 1.0965,0.943737 1.54233,2.363896 0.46434,1.422709 0.23457,3.089409 l -2.2109,16.03732 q -0.22977,1.6667 -1.06175,2.9107 -0.81346,1.24656 -2.12441,1.8584 -1.29243,0.6144 -2.95913,0.38463 z m 0.53613,-3.88896 q 0.74076,0.10212 1.12131,-0.46815 0.3831,-0.58879 0.48778,-1.34806 l 2.2109,-16.03733 q 0.10467,-0.75927 -0.1259,-1.4138 -0.22802,-0.673037 -0.93173,-0.770051 -0.6852,-0.09446 -1.10534,0.489225 -0.39907,0.567726 -0.50375,1.326996 l -2.2109,16.03732 q -0.10467,0.75928 0.12335,1.43232 0.23057,0.65452 0.93428,0.75153 z m 6.38646,4.59095 7.45226,-26.450408 3.63468,1.024053 -0.28459,14.796915 -0.0208,1.31481 0.21592,0.0608 4.22802,-15.006555 3.56271,1.003775 -7.45226,26.45041 -3.27482,-0.92266 -0.0753,-14.89831 0.0208,-1.31481 -0.21593,-0.0608 -4.22802,15.00655 z"
           id="path13"
           style="font-size:37.388px;line-height:1.3;font-family:'League Gothic';-inkscape-font-specification:'League Gothic';text-align:center;letter-spacing:-1.25148px;word-spacing:0px;text-anchor:middle;white-space:pre;fill:#000000;fill-opacity:1;fill-rule:nonzero;stroke:#000000;stroke-width:12.89;stroke-miterlimit:3.2;stroke-dasharray:none;stroke-dashoffset:0;stroke-opacity:1;paint-order:markers stroke fill"
           ariaLabel="FUSION" />
        <path
           d="m 84.113,151.13885 -4.174022,-24.45792 8.551955,-1.45949 0.630363,3.69365 -4.958138,0.84616 1.096036,6.42229 3.327609,-0.5679 0.630362,3.69365 -3.327609,0.56789 1.817262,10.64835 z m 10.042174,-1.58347 -1.527133,-24.7645 8.322219,-0.5132 0.23063,3.73995 -4.683355,0.2888 0.411391,6.67125 3.369324,-0.20777 0.22439,3.63886 -3.369319,0.20778 0.43009,6.97449 4.683359,-0.28881 0.23062,3.73995 z m 15.400386,-0.0532 q -1.50036,-0.0742 -2.47082,-0.61223 -0.96962,-0.55491 -1.49612,-1.5273 -0.5265,-0.97238 -0.71353,-2.31667 -0.17017,-1.34345 -0.0877,-3.01239 l 3.59056,-0.16048 q -0.04,0.80919 -0.0269,1.5703 0.0308,0.74508 0.15248,1.35947 0.13941,0.59837 0.42535,0.96739 0.3028,0.36985 0.79169,0.39402 0.80918,0.04 1.18301,-0.68508 0.37467,-0.74194 0.42717,-1.804 0.0525,-1.06205 -0.44714,-2.2359 -0.49964,-1.17385 -1.22427,-2.24052 -1.22825,-1.81824 -2.1487,-3.36778 -0.90359,-1.5487 -1.38823,-3.02599 -0.46778,-1.47646 -0.38944,-3.06111 0.0617,-1.24749 0.43365,-2.27686 0.37281,-1.04622 1.01803,-1.79168 0.66292,-0.76149 1.5612,-1.15646 0.89829,-0.39497 2.02778,-0.33913 1.39921,0.0692 2.33678,0.5887 0.95443,0.52036 1.50112,1.42615 0.56355,0.90662 0.77328,2.13373 0.22741,1.21109 0.1549,2.67773 l -3.59056,0.16048 q 0.0308,-0.62375 -0.006,-1.25083 -0.0189,-0.6431 -0.14479,-1.1732 -0.12589,-0.5301 -0.39664,-0.86457 -0.27075,-0.33447 -0.72592,-0.35697 -0.70804,-0.035 -1.00777,0.55855 -0.29889,0.57669 -0.35307,1.67246 -0.07,1.41608 0.6236,2.76851 0.6936,1.35242 1.88814,3.169 1.43157,2.14937 2.30663,3.93325 0.89192,1.78472 0.78775,3.89197 -0.0658,1.33178 -0.4091,2.46396 -0.34243,1.11532 -1.00784,1.92738 -0.64856,0.8129 -1.63281,1.23742 -0.96738,0.42535 -2.31602,0.35868 z m 9.42045,0.62603 3.43244,-20.78295 -3.39722,-0.56107 0.61058,-3.69697 10.39148,1.71622 -0.61058,3.69697 -3.39721,-0.56107 -3.43244,20.78295 z"
           id="path14"
           style="font-size:33.7572px;line-height:1.3;font-family:'League Gothic';-inkscape-font-specification:'League Gothic';text-align:center;letter-spacing:0px;word-spacing:0px;text-anchor:middle;white-space:pre;fill:#000000;fill-opacity:1;fill-rule:nonzero;stroke:#000000;stroke-width:12.89;stroke-miterlimit:3.2;stroke-dasharray:none;stroke-dashoffset:0;stroke-opacity:1;paint-order:markers stroke fill"
           ariaLabel="FEST" />
        <g
           id="g17"
           style="mix-blend-mode:normal;fill:#000000;fill-opacity:1;fill-rule:nonzero;stroke:#000000;stroke-width:12.89;stroke-miterlimit:3.2;stroke-dasharray:none;stroke-dashoffset:0;stroke-opacity:1;paint-order:markers stroke fill">
          <path
             style="font-size:42.9665px;line-height:1.3;font-family:'League Gothic';-inkscape-font-specification:'League Gothic';text-align:center;letter-spacing:-1.32292px;word-spacing:0px;text-anchor:middle;white-space:pre;fill:#000000;fill-opacity:1;fill-rule:nonzero;stroke:#000000;stroke-width:12.89;stroke-miterlimit:3.2;stroke-dasharray:none;stroke-dashoffset:0;stroke-opacity:1;paint-order:markers stroke fill"
             d="m 76.264881,96.710227 q -1.856166,0.458722 -3.23613,0.158002 -1.385118,-0.321577 -2.38285,-1.314259 -0.997731,-0.992683 -1.717749,-2.562978 -0.699163,-1.575449 -1.209427,-3.640173 l 4.318345,-1.509805 q 0.247401,1.001079 0.541907,1.924127 0.310208,0.897038 0.683461,1.601459 0.388954,0.678411 0.872597,1.023608 0.504498,0.340042 1.109316,0.19057 1.001079,-0.247401 1.19141,-1.26814 0.185178,-1.041594 -0.139536,-2.35551 -0.324714,-1.313915 -1.363441,-2.562021 -1.038726,-1.248106 -2.312498,-2.283217 -2.162788,-1.766976 -3.852003,-3.319045 -1.66836,-1.557223 -2.799861,-3.180734 -1.110646,-1.628664 -1.59514,-3.589109 -0.38141,-1.543329 -0.30471,-2.934319 0.07155,-1.411845 0.585262,-2.556762 0.529418,-1.170928 1.47991,-1.981196 0.950493,-0.810269 2.347832,-1.1556 1.731031,-0.427798 3.064129,-0.137624 1.353953,0.285019 2.351924,1.189124 1.018827,0.898951 1.723621,2.318101 0.720496,1.393141 1.168911,3.207595 l -4.318346,1.509805 q -0.190705,-0.771665 -0.464833,-1.522713 -0.258426,-0.777058 -0.605909,-1.3772 -0.347482,-0.600142 -0.79996,-0.908781 -0.452478,-0.308638 -1.015585,-0.169475 -0.875943,0.216476 -1.024085,1.049751 -0.153296,0.81242 0.181726,2.168047 0.432952,1.751887 1.77349,3.146701 1.340538,1.394814 3.461614,3.172099 2.531843,2.096231 4.251505,3.95059 1.740518,1.849204 2.384792,4.456179 0.407181,1.647608 0.403117,3.153424 -0.0092,1.484959 -0.523172,2.718454 -0.4931,1.228341 -1.537563,2.106092 -1.023607,0.872597 -2.692071,1.284933 z M 89.585516,94.302272 Q 87.666141,94.535494 86.171088,93.808223 84.697363,93.078362 83.764361,91.633559 82.852686,90.186165 82.619465,88.26679 L 80.375351,69.798137 q -0.235813,-1.940702 0.305298,-3.542982 0.559846,-1.626197 1.815898,-2.687752 1.277378,-1.064147 3.196753,-1.297369 1.919375,-0.233222 3.393101,0.49664 1.495052,0.72727 2.406727,2.174664 0.933001,1.444803 1.166223,3.364178 l 2.244114,18.468653 q 0.233222,1.919375 -0.326624,3.545573 -0.53852,1.623606 -1.815898,2.687753 -1.256052,1.061555 -3.175427,1.294777 z M 89.041331,89.82373 q 0.853056,-0.103654 1.108763,-0.848887 0.253116,-0.766559 0.146871,-1.640941 L 88.052851,68.865249 q -0.106245,-0.874382 -0.554309,-1.5341 -0.450654,-0.681044 -1.261057,-0.582573 -0.789077,0.09588 -1.084846,0.867622 -0.277034,0.747824 -0.170788,1.622206 l 2.244114,18.468653 q 0.106245,0.874382 0.5569,1.555426 0.448063,0.659718 1.258466,0.561247 z m 14.744509,3.583124 q -1.95493,0.01322 -3.35741,-0.879622 -1.380993,-0.892983 -2.12186,-2.434804 -0.740869,-1.541822 -0.753938,-3.47527 l -0.169608,-25.091862 4.640266,-0.03137 0.16961,25.091862 q 0.006,0.923759 0.37624,1.630221 0.36986,0.68498 1.1862,0.679462 0.85931,-0.0058 1.19839,-0.69558 0.33893,-0.711255 0.33269,-1.635013 l -0.16961,-25.091863 4.64028,-0.03137 0.1696,25.091862 q 0.0131,1.933448 -0.72837,3.485289 -0.71996,1.551696 -2.11024,2.463411 -1.3688,0.911569 -3.30224,0.924638 z m 8.31334,-0.319362 3.57189,-31.377728 4.31176,0.490831 2.40781,16.836542 0.21899,1.495224 0.25614,0.02916 2.0265,-17.802059 4.22639,0.481112 -3.57189,31.377728 -3.88486,-0.442234 -2.83471,-16.885139 -0.21899,-1.495224 -0.25615,-0.02916 -2.0265,17.802058 z m 15.54816,1.900871 7.76315,-30.611335 4.58129,1.161831 q 2.16569,0.54923 3.48547,1.637483 1.31977,1.088252 1.80299,3.02819 0.48321,1.939937 0.12367,5.018114 -0.33871,3.083459 -1.48997,7.623099 -1.15655,4.560464 -2.32823,7.43268 -1.14556,2.856673 -2.49487,4.331878 -1.34402,1.454381 -3.0229,1.782163 -1.67361,0.306957 -3.83931,-0.242272 z m 5.6387,-3.357285 q 1.66592,0.422484 2.68582,-0.715156 1.0199,-1.13764 1.78355,-3.537085 0.76366,-2.399445 1.6139,-5.752115 0.86082,-3.394318 1.32237,-5.826049 0.46683,-2.452556 0.081,-3.902378 -0.35977,-1.465365 -2.00487,-1.882568 z"
             id="path15"
             ariaLabel="SOUND" />
          <path
             d="m 73.506548,126.81672 -7.591555,-26.41077 9.234785,-2.654459 1.14648,3.988569 -5.35402,1.53896 1.993429,6.93508 3.593302,-1.03287 1.14648,3.98857 -3.593302,1.03286 3.305167,11.49857 z m 15.000664,-3.27427 q -1.679865,0.26828 -3.003593,-0.31541 -1.305268,-0.58663 -2.14518,-1.81552 -0.839912,-1.22888 -1.10525,-2.89029 l -3.443491,-21.561349 3.987373,-0.63681 3.443491,21.561349 q 0.126772,0.79378 0.537884,1.35285 0.408163,0.5406 1.109645,0.42857 0.738403,-0.11793 0.939421,-0.75582 0.198071,-0.65636 0.0713,-1.45014 l -3.443491,-21.561349 3.987373,-0.63681 3.44349,21.561349 q 0.265338,1.66141 -0.168494,3.09372 -0.415372,1.42936 -1.491452,2.39631 -1.05762,0.96401 -2.719025,1.22935 z m 11.884538,-1.15862 q -1.662576,0.063 -2.785254,-0.437 -1.123386,-0.51866 -1.798157,-1.54072 -0.674771,-1.02205 -1.010888,-2.4872 -0.317436,-1.46586 -0.387497,-3.31524 l 3.946134,-0.52364 q 0.03397,0.89667 0.121856,1.73517 0.105861,0.81912 0.299463,1.48525 0.211576,0.64674 0.562688,1.0263 0.369793,0.37884 0.911535,0.35832 0.89667,-0.034 1.23914,-0.87007 0.34177,-0.85478 0.29718,-2.03166 -0.0446,-1.17688 -0.70917,-2.4238 -0.66458,-1.24693 -1.567057,-2.35389 -1.530687,-1.88759 -2.695827,-3.5084 -1.146459,-1.62153 -1.82378,-3.20471 -0.658641,-1.58389 -0.725164,-3.33986 -0.05237,-1.382366 0.258686,-2.55401 0.310347,-1.190324 0.950295,-2.075108 0.657921,-0.904173 1.610912,-1.426668 0.952991,-0.522496 2.204591,-0.569911 1.550494,-0.05874 2.635104,0.42398 1.10329,0.482011 1.79391,1.428633 0.7093,0.945914 1.05914,2.279595 0.36782,1.314291 0.42939,2.939499 l -3.94613,0.52365 q -0.0262,-0.69119 -0.1271,-1.37954 -0.0829,-0.707737 -0.27299,-1.280466 -0.19007,-0.572729 -0.52108,-0.91563 -0.33102,-0.342901 -0.835399,-0.323793 -0.784585,0.02972 -1.057998,0.713548 -0.27412,0.665144 -0.22812,1.879381 0.05945,1.56917 0.955273,2.99441 0.895824,1.42524 2.389154,3.31424 1.78698,2.23332 2.92467,4.11708 1.15636,1.88305 1.24483,4.21813 0.0559,1.47577 -0.21354,2.75808 -0.27016,1.26363 -0.92596,2.22384 -0.63711,0.95951 -1.68209,1.52291 -1.0263,0.56268 -2.52075,0.6193 z m 6.51386,-0.35325 1.28783,-27.449986 4.03347,0.189234 -1.28784,27.449982 z m 10.8909,1.20877 q -1.66669,-0.22977 -2.76319,-1.1735 -1.07798,-0.94119 -1.54233,-2.3639 -0.44582,-1.42016 -0.21605,-3.08686 l 2.2109,-16.03732 q 0.23233,-1.685216 1.04323,-2.913252 0.83198,-1.244002 2.12441,-1.858402 1.31095,-0.611846 2.97765,-0.382076 1.66669,0.229771 2.74467,1.170955 1.0965,0.943737 1.54233,2.363896 0.46434,1.422709 0.23457,3.089409 l -2.2109,16.03732 q -0.22977,1.6667 -1.06175,2.9107 -0.81346,1.24656 -2.12441,1.8584 -1.29243,0.6144 -2.95913,0.38463 z m 0.53613,-3.88896 q 0.74076,0.10212 1.12131,-0.46815 0.3831,-0.58879 0.48778,-1.34806 l 2.2109,-16.03733 q 0.10467,-0.75927 -0.1259,-1.4138 -0.22802,-0.673037 -0.93173,-0.770051 -0.6852,-0.09446 -1.10534,0.489225 -0.39907,0.567726 -0.50375,1.326996 l -2.2109,16.03732 q -0.10467,0.75928 0.12335,1.43232 0.23057,0.65452 0.93428,0.75153 z m 6.38646,4.59095 7.45226,-26.450408 3.63468,1.024053 -0.28459,14.796915 -0.0208,1.31481 0.21592,0.0608 4.22802,-15.006555 3.56271,1.003775 -7.45226,26.45041 -3.27482,-0.92266 -0.0753,-14.89831 0.0208,-1.31481 -0.21593,-0.0608 -4.22802,15.00655 z"
             id="path16"
             style="font-size:37.388px;line-height:1.3;font-family:'League Gothic';-inkscape-font-specification:'League Gothic';text-align:center;letter-spacing:-1.25148px;word-spacing:0px;text-anchor:middle;white-space:pre;fill:#000000;fill-opacity:1;fill-rule:nonzero;stroke:#000000;stroke-width:12.89;stroke-miterlimit:3.2;stroke-dasharray:none;stroke-dashoffset:0;stroke-opacity:1;paint-order:markers stroke fill"
             ariaLabel="FUSION" />
          <path
             d="m 84.113,151.13885 -4.174022,-24.45792 8.551955,-1.45949 0.630363,3.69365 -4.958138,0.84616 1.096036,6.42229 3.327609,-0.5679 0.630362,3.69365 -3.327609,0.56789 1.817262,10.64835 z m 10.042174,-1.58347 -1.527133,-24.7645 8.322219,-0.5132 0.23063,3.73995 -4.683355,0.2888 0.411391,6.67125 3.369324,-0.20777 0.22439,3.63886 -3.369319,0.20778 0.43009,6.97449 4.683359,-0.28881 0.23062,3.73995 z m 15.400386,-0.0532 q -1.50036,-0.0742 -2.47082,-0.61223 -0.96962,-0.55491 -1.49612,-1.5273 -0.5265,-0.97238 -0.71353,-2.31667 -0.17017,-1.34345 -0.0877,-3.01239 l 3.59056,-0.16048 q -0.04,0.80919 -0.0269,1.5703 0.0308,0.74508 0.15248,1.35947 0.13941,0.59837 0.42535,0.96739 0.3028,0.36985 0.79169,0.39402 0.80918,0.04 1.18301,-0.68508 0.37467,-0.74194 0.42717,-1.804 0.0525,-1.06205 -0.44714,-2.2359 -0.49964,-1.17385 -1.22427,-2.24052 -1.22825,-1.81824 -2.1487,-3.36778 -0.90359,-1.5487 -1.38823,-3.02599 -0.46778,-1.47646 -0.38944,-3.06111 0.0617,-1.24749 0.43365,-2.27686 0.37281,-1.04622 1.01803,-1.79168 0.66292,-0.76149 1.5612,-1.15646 0.89829,-0.39497 2.02778,-0.33913 1.39921,0.0692 2.33678,0.5887 0.95443,0.52036 1.50112,1.42615 0.56355,0.90662 0.77328,2.13373 0.22741,1.21109 0.1549,2.67773 l -3.59056,0.16048 q 0.0308,-0.62375 -0.006,-1.25083 -0.0189,-0.6431 -0.14479,-1.1732 -0.12589,-0.5301 -0.39664,-0.86457 -0.27075,-0.33447 -0.72592,-0.35697 -0.70804,-0.035 -1.00777,0.55855 -0.29889,0.57669 -0.35307,1.67246 -0.07,1.41608 0.6236,2.76851 0.6936,1.35242 1.88814,3.169 1.43157,2.14937 2.30663,3.93325 0.89192,1.78472 0.78775,3.89197 -0.0658,1.33178 -0.4091,2.46396 -0.34243,1.11532 -1.00784,1.92738 -0.64856,0.8129 -1.63281,1.23742 -0.96738,0.42535 -2.31602,0.35868 z m 9.42045,0.62603 3.43244,-20.78295 -3.39722,-0.56107 0.61058,-3.69697 10.39148,1.71622 -0.61058,3.69697 -3.39721,-0.56107 -3.43244,20.78295 z"
             id="path17"
             style="font-size:33.7572px;line-height:1.3;font-family:'League Gothic';-inkscape-font-specification:'League Gothic';text-align:center;letter-spacing:0px;word-spacing:0px;text-anchor:middle;white-space:pre;fill:#000000;fill-opacity:1;fill-rule:nonzero;stroke:#000000;stroke-width:12.89;stroke-miterlimit:3.2;stroke-dasharray:none;stroke-dashoffset:0;stroke-opacity:1;paint-order:markers stroke fill"
             ariaLabel="FEST" />
        </g>
      </g>
      <g
         id="g9"
         style="display:inline;mix-blend-mode:normal;fill:#000000;fill-opacity:1;fill-rule:nonzero;stroke:#ffffff;stroke-width:5.48984;stroke-miterlimit:3.2;stroke-dasharray:none;stroke-dashoffset:0;stroke-opacity:1;paint-order:markers stroke fill"
         inkscapeLabel="g9">
        <path
           style="font-size:42.9665px;line-height:1.3;font-family:'League Gothic';-inkscape-font-specification:'League Gothic';text-align:center;letter-spacing:-1.32292px;word-spacing:0px;text-anchor:middle;white-space:pre;fill:#000000;fill-opacity:1;fill-rule:nonzero;stroke:#ffffff;stroke-width:5.48984;stroke-miterlimit:3.2;stroke-dasharray:none;stroke-dashoffset:0;stroke-opacity:1;paint-order:markers stroke fill"
           d="m 76.264881,96.710227 q -1.856166,0.458722 -3.23613,0.158002 -1.385118,-0.321577 -2.38285,-1.314259 -0.997731,-0.992683 -1.717749,-2.562978 -0.699163,-1.575449 -1.209427,-3.640173 l 4.318345,-1.509805 q 0.247401,1.001079 0.541907,1.924127 0.310208,0.897038 0.683461,1.601459 0.388954,0.678411 0.872597,1.023608 0.504498,0.340042 1.109316,0.19057 1.001079,-0.247401 1.19141,-1.26814 0.185178,-1.041594 -0.139536,-2.35551 -0.324714,-1.313915 -1.363441,-2.562021 -1.038726,-1.248106 -2.312498,-2.283217 -2.162788,-1.766976 -3.852003,-3.319045 -1.66836,-1.557223 -2.799861,-3.180734 -1.110646,-1.628664 -1.59514,-3.589109 -0.38141,-1.543329 -0.30471,-2.934319 0.07155,-1.411845 0.585262,-2.556762 0.529418,-1.170928 1.47991,-1.981196 0.950493,-0.810269 2.347832,-1.1556 1.731031,-0.427798 3.064129,-0.137624 1.353953,0.285019 2.351924,1.189124 1.018827,0.898951 1.723621,2.318101 0.720496,1.393141 1.168911,3.207595 l -4.318346,1.509805 q -0.190705,-0.771665 -0.464833,-1.522713 -0.258426,-0.777058 -0.605909,-1.3772 -0.347482,-0.600142 -0.79996,-0.908781 -0.452478,-0.308638 -1.015585,-0.169475 -0.875943,0.216476 -1.024085,1.049751 -0.153296,0.81242 0.181726,2.168047 0.432952,1.751887 1.77349,3.146701 1.340538,1.394814 3.461614,3.172099 2.531843,2.096231 4.251505,3.95059 1.740518,1.849204 2.384792,4.456179 0.407181,1.647608 0.403117,3.153424 -0.0092,1.484959 -0.523172,2.718454 -0.4931,1.228341 -1.537563,2.106092 -1.023607,0.872597 -2.692071,1.284933 z M 89.585516,94.302272 Q 87.666141,94.535494 86.171088,93.808223 84.697363,93.078362 83.764361,91.633559 82.852686,90.186165 82.619465,88.26679 L 80.375351,69.798137 q -0.235813,-1.940702 0.305298,-3.542982 0.559846,-1.626197 1.815898,-2.687752 1.277378,-1.064147 3.196753,-1.297369 1.919375,-0.233222 3.393101,0.49664 1.495052,0.72727 2.406727,2.174664 0.933001,1.444803 1.166223,3.364178 l 2.244114,18.468653 q 0.233222,1.919375 -0.326624,3.545573 -0.53852,1.623606 -1.815898,2.687753 -1.256052,1.061555 -3.175427,1.294777 z M 89.041331,89.82373 q 0.853056,-0.103654 1.108763,-0.848887 0.253116,-0.766559 0.146871,-1.640941 L 88.052851,68.865249 q -0.106245,-0.874382 -0.554309,-1.5341 -0.450654,-0.681044 -1.261057,-0.582573 -0.789077,0.09588 -1.084846,0.867622 -0.277034,0.747824 -0.170788,1.622206 l 2.244114,18.468653 q 0.106245,0.874382 0.5569,1.555426 0.448063,0.659718 1.258466,0.561247 z m 14.744509,3.583124 q -1.95493,0.01322 -3.35741,-0.879622 -1.380993,-0.892983 -2.12186,-2.434804 -0.740869,-1.541822 -0.753938,-3.47527 l -0.169608,-25.091862 4.640266,-0.03137 0.16961,25.091862 q 0.006,0.923759 0.37624,1.630221 0.36986,0.68498 1.1862,0.679462 0.85931,-0.0058 1.19839,-0.69558 0.33893,-0.711255 0.33269,-1.635013 l -0.16961,-25.091863 4.64028,-0.03137 0.1696,25.091862 q 0.0131,1.933448 -0.72837,3.485289 -0.71996,1.551696 -2.11024,2.463411 -1.3688,0.911569 -3.30224,0.924638 z m 8.31334,-0.319362 3.57189,-31.377728 4.31176,0.490831 2.40781,16.836542 0.21899,1.495224 0.25614,0.02916 2.0265,-17.802059 4.22639,0.481112 -3.57189,31.377728 -3.88486,-0.442234 -2.83471,-16.885139 -0.21899,-1.495224 -0.25615,-0.02916 -2.0265,17.802058 z m 15.54816,1.900871 7.76315,-30.611335 4.58129,1.161831 q 2.16569,0.54923 3.48547,1.637483 1.31977,1.088252 1.80299,3.02819 0.48321,1.939937 0.12367,5.018114 -0.33871,3.083459 -1.48997,7.623099 -1.15655,4.560464 -2.32823,7.43268 -1.14556,2.856673 -2.49487,4.331878 -1.34402,1.454381 -3.0229,1.782163 -1.67361,0.306957 -3.83931,-0.242272 z m 5.6387,-3.357285 q 1.66592,0.422484 2.68582,-0.715156 1.0199,-1.13764 1.78355,-3.537085 0.76366,-2.399445 1.6139,-5.752115 0.86082,-3.394318 1.32237,-5.826049 0.46683,-2.452556 0.081,-3.902378 -0.35977,-1.465365 -2.00487,-1.882568 z"
           id="path7"
           ariaLabel="SOUND" />
        <path
           d="m 73.506548,126.81672 -7.591555,-26.41077 9.234785,-2.654459 1.14648,3.988569 -5.35402,1.53896 1.993429,6.93508 3.593302,-1.03287 1.14648,3.98857 -3.593302,1.03286 3.305167,11.49857 z m 15.000664,-3.27427 q -1.679865,0.26828 -3.003593,-0.31541 -1.305268,-0.58663 -2.14518,-1.81552 -0.839912,-1.22888 -1.10525,-2.89029 l -3.443491,-21.561349 3.987373,-0.63681 3.443491,21.561349 q 0.126772,0.79378 0.537884,1.35285 0.408163,0.5406 1.109645,0.42857 0.738403,-0.11793 0.939421,-0.75582 0.198071,-0.65636 0.0713,-1.45014 l -3.443491,-21.561349 3.987373,-0.63681 3.44349,21.561349 q 0.265338,1.66141 -0.168494,3.09372 -0.415372,1.42936 -1.491452,2.39631 -1.05762,0.96401 -2.719025,1.22935 z m 11.884538,-1.15862 q -1.662576,0.063 -2.785254,-0.437 -1.123386,-0.51866 -1.798157,-1.54072 -0.674771,-1.02205 -1.010888,-2.4872 -0.317436,-1.46586 -0.387497,-3.31524 l 3.946134,-0.52364 q 0.03397,0.89667 0.121856,1.73517 0.105861,0.81912 0.299463,1.48525 0.211576,0.64674 0.562688,1.0263 0.369793,0.37884 0.911535,0.35832 0.89667,-0.034 1.23914,-0.87007 0.34177,-0.85478 0.29718,-2.03166 -0.0446,-1.17688 -0.70917,-2.4238 -0.66458,-1.24693 -1.567057,-2.35389 -1.530687,-1.88759 -2.695827,-3.5084 -1.146459,-1.62153 -1.82378,-3.20471 -0.658641,-1.58389 -0.725164,-3.33986 -0.05237,-1.382366 0.258686,-2.55401 0.310347,-1.190324 0.950295,-2.075108 0.657921,-0.904173 1.610912,-1.426668 0.952991,-0.522496 2.204591,-0.569911 1.550494,-0.05874 2.635104,0.42398 1.10329,0.482011 1.79391,1.428633 0.7093,0.945914 1.05914,2.279595 0.36782,1.314291 0.42939,2.939499 l -3.94613,0.52365 q -0.0262,-0.69119 -0.1271,-1.37954 -0.0829,-0.707737 -0.27299,-1.280466 -0.19007,-0.572729 -0.52108,-0.91563 -0.33102,-0.342901 -0.835399,-0.323793 -0.784585,0.02972 -1.057998,0.713548 -0.27412,0.665144 -0.22812,1.879381 0.05945,1.56917 0.955273,2.99441 0.895824,1.42524 2.389154,3.31424 1.78698,2.23332 2.92467,4.11708 1.15636,1.88305 1.24483,4.21813 0.0559,1.47577 -0.21354,2.75808 -0.27016,1.26363 -0.92596,2.22384 -0.63711,0.95951 -1.68209,1.52291 -1.0263,0.56268 -2.52075,0.6193 z m 6.51386,-0.35325 1.28783,-27.449986 4.03347,0.189234 -1.28784,27.449982 z m 10.8909,1.20877 q -1.66669,-0.22977 -2.76319,-1.1735 -1.07798,-0.94119 -1.54233,-2.3639 -0.44582,-1.42016 -0.21605,-3.08686 l 2.2109,-16.03732 q 0.23233,-1.685216 1.04323,-2.913252 0.83198,-1.244002 2.12441,-1.858402 1.31095,-0.611846 2.97765,-0.382076 1.66669,0.229771 2.74467,1.170955 1.0965,0.943737 1.54233,2.363896 0.46434,1.422709 0.23457,3.089409 l -2.2109,16.03732 q -0.22977,1.6667 -1.06175,2.9107 -0.81346,1.24656 -2.12441,1.8584 -1.29243,0.6144 -2.95913,0.38463 z m 0.53613,-3.88896 q 0.74076,0.10212 1.12131,-0.46815 0.3831,-0.58879 0.48778,-1.34806 l 2.2109,-16.03733 q 0.10467,-0.75927 -0.1259,-1.4138 -0.22802,-0.673037 -0.93173,-0.770051 -0.6852,-0.09446 -1.10534,0.489225 -0.39907,0.567726 -0.50375,1.326996 l -2.2109,16.03732 q -0.10467,0.75928 0.12335,1.43232 0.23057,0.65452 0.93428,0.75153 z m 6.38646,4.59095 7.45226,-26.450408 3.63468,1.024053 -0.28459,14.796915 -0.0208,1.31481 0.21592,0.0608 4.22802,-15.006555 3.56271,1.003775 -7.45226,26.45041 -3.27482,-0.92266 -0.0753,-14.89831 0.0208,-1.31481 -0.21593,-0.0608 -4.22802,15.00655 z"
           id="path8"
           style="font-size:37.388px;line-height:1.3;font-family:'League Gothic';-inkscape-font-specification:'League Gothic';text-align:center;letter-spacing:-1.25148px;word-spacing:0px;text-anchor:middle;white-space:pre;fill:#000000;fill-opacity:1;fill-rule:nonzero;stroke:#ffffff;stroke-width:5.48984;stroke-miterlimit:3.2;stroke-dasharray:none;stroke-dashoffset:0;stroke-opacity:1;paint-order:markers stroke fill"
           ariaLabel="FUSION" />
        <path
           d="m 84.113,151.13885 -4.174022,-24.45792 8.551955,-1.45949 0.630363,3.69365 -4.958138,0.84616 1.096036,6.42229 3.327609,-0.5679 0.630362,3.69365 -3.327609,0.56789 1.817262,10.64835 z m 10.042174,-1.58347 -1.527133,-24.7645 8.322219,-0.5132 0.23063,3.73995 -4.683355,0.2888 0.411391,6.67125 3.369324,-0.20777 0.22439,3.63886 -3.369319,0.20778 0.43009,6.97449 4.683359,-0.28881 0.23062,3.73995 z m 15.400386,-0.0532 q -1.50036,-0.0742 -2.47082,-0.61223 -0.96962,-0.55491 -1.49612,-1.5273 -0.5265,-0.97238 -0.71353,-2.31667 -0.17017,-1.34345 -0.0877,-3.01239 l 3.59056,-0.16048 q -0.04,0.80919 -0.0269,1.5703 0.0308,0.74508 0.15248,1.35947 0.13941,0.59837 0.42535,0.96739 0.3028,0.36985 0.79169,0.39402 0.80918,0.04 1.18301,-0.68508 0.37467,-0.74194 0.42717,-1.804 0.0525,-1.06205 -0.44714,-2.2359 -0.49964,-1.17385 -1.22427,-2.24052 -1.22825,-1.81824 -2.1487,-3.36778 -0.90359,-1.5487 -1.38823,-3.02599 -0.46778,-1.47646 -0.38944,-3.06111 0.0617,-1.24749 0.43365,-2.27686 0.37281,-1.04622 1.01803,-1.79168 0.66292,-0.76149 1.5612,-1.15646 0.89829,-0.39497 2.02778,-0.33913 1.39921,0.0692 2.33678,0.5887 0.95443,0.52036 1.50112,1.42615 0.56355,0.90662 0.77328,2.13373 0.22741,1.21109 0.1549,2.67773 l -3.59056,0.16048 q 0.0308,-0.62375 -0.006,-1.25083 -0.0189,-0.6431 -0.14479,-1.1732 -0.12589,-0.5301 -0.39664,-0.86457 -0.27075,-0.33447 -0.72592,-0.35697 -0.70804,-0.035 -1.00777,0.55855 -0.29889,0.57669 -0.35307,1.67246 -0.07,1.41608 0.6236,2.76851 0.6936,1.35242 1.88814,3.169 1.43157,2.14937 2.30663,3.93325 0.89192,1.78472 0.78775,3.89197 -0.0658,1.33178 -0.4091,2.46396 -0.34243,1.11532 -1.00784,1.92738 -0.64856,0.8129 -1.63281,1.23742 -0.96738,0.42535 -2.31602,0.35868 z m 9.42045,0.62603 3.43244,-20.78295 -3.39722,-0.56107 0.61058,-3.69697 10.39148,1.71622 -0.61058,3.69697 -3.39721,-0.56107 -3.43244,20.78295 z"
           id="path9"
           style="font-size:33.7572px;line-height:1.3;font-family:'League Gothic';-inkscape-font-specification:'League Gothic';text-align:center;letter-spacing:0px;word-spacing:0px;text-anchor:middle;white-space:pre;fill:#000000;fill-opacity:1;fill-rule:nonzero;stroke:#ffffff;stroke-width:5.48984;stroke-miterlimit:3.2;stroke-dasharray:none;stroke-dashoffset:0;stroke-opacity:1;paint-order:markers stroke fill"
           ariaLabel="FEST" />
        <g
           id="g7"
           style="mix-blend-mode:normal;fill:#000000;fill-opacity:1;fill-rule:nonzero;stroke:none;stroke-width:2.64583;stroke-miterlimit:3.2;stroke-dasharray:none;stroke-dashoffset:0;stroke-opacity:0;paint-order:markers stroke fill">
          <path
             style="font-size:42.9665px;line-height:1.3;font-family:'League Gothic';-inkscape-font-specification:'League Gothic';text-align:center;letter-spacing:-1.32292px;word-spacing:0px;text-anchor:middle;white-space:pre;fill:#000000;fill-opacity:1;fill-rule:nonzero;stroke:none;stroke-width:2.64583;stroke-miterlimit:3.2;stroke-dasharray:none;stroke-dashoffset:0;stroke-opacity:0;paint-order:markers stroke fill"
             d="m 76.264881,96.710227 q -1.856166,0.458722 -3.23613,0.158002 -1.385118,-0.321577 -2.38285,-1.314259 -0.997731,-0.992683 -1.717749,-2.562978 -0.699163,-1.575449 -1.209427,-3.640173 l 4.318345,-1.509805 q 0.247401,1.001079 0.541907,1.924127 0.310208,0.897038 0.683461,1.601459 0.388954,0.678411 0.872597,1.023608 0.504498,0.340042 1.109316,0.19057 1.001079,-0.247401 1.19141,-1.26814 0.185178,-1.041594 -0.139536,-2.35551 -0.324714,-1.313915 -1.363441,-2.562021 -1.038726,-1.248106 -2.312498,-2.283217 -2.162788,-1.766976 -3.852003,-3.319045 -1.66836,-1.557223 -2.799861,-3.180734 -1.110646,-1.628664 -1.59514,-3.589109 -0.38141,-1.543329 -0.30471,-2.934319 0.07155,-1.411845 0.585262,-2.556762 0.529418,-1.170928 1.47991,-1.981196 0.950493,-0.810269 2.347832,-1.1556 1.731031,-0.427798 3.064129,-0.137624 1.353953,0.285019 2.351924,1.189124 1.018827,0.898951 1.723621,2.318101 0.720496,1.393141 1.168911,3.207595 l -4.318346,1.509805 q -0.190705,-0.771665 -0.464833,-1.522713 -0.258426,-0.777058 -0.605909,-1.3772 -0.347482,-0.600142 -0.79996,-0.908781 -0.452478,-0.308638 -1.015585,-0.169475 -0.875943,0.216476 -1.024085,1.049751 -0.153296,0.81242 0.181726,2.168047 0.432952,1.751887 1.77349,3.146701 1.340538,1.394814 3.461614,3.172099 2.531843,2.096231 4.251505,3.95059 1.740518,1.849204 2.384792,4.456179 0.407181,1.647608 0.403117,3.153424 -0.0092,1.484959 -0.523172,2.718454 -0.4931,1.228341 -1.537563,2.106092 -1.023607,0.872597 -2.692071,1.284933 z M 89.585516,94.302272 Q 87.666141,94.535494 86.171088,93.808223 84.697363,93.078362 83.764361,91.633559 82.852686,90.186165 82.619465,88.26679 L 80.375351,69.798137 q -0.235813,-1.940702 0.305298,-3.542982 0.559846,-1.626197 1.815898,-2.687752 1.277378,-1.064147 3.196753,-1.297369 1.919375,-0.233222 3.393101,0.49664 1.495052,0.72727 2.406727,2.174664 0.933001,1.444803 1.166223,3.364178 l 2.244114,18.468653 q 0.233222,1.919375 -0.326624,3.545573 -0.53852,1.623606 -1.815898,2.687753 -1.256052,1.061555 -3.175427,1.294777 z M 89.041331,89.82373 q 0.853056,-0.103654 1.108763,-0.848887 0.253116,-0.766559 0.146871,-1.640941 L 88.052851,68.865249 q -0.106245,-0.874382 -0.554309,-1.5341 -0.450654,-0.681044 -1.261057,-0.582573 -0.789077,0.09588 -1.084846,0.867622 -0.277034,0.747824 -0.170788,1.622206 l 2.244114,18.468653 q 0.106245,0.874382 0.5569,1.555426 0.448063,0.659718 1.258466,0.561247 z m 14.744509,3.583124 q -1.95493,0.01322 -3.35741,-0.879622 -1.380993,-0.892983 -2.12186,-2.434804 -0.740869,-1.541822 -0.753938,-3.47527 l -0.169608,-25.091862 4.640266,-0.03137 0.16961,25.091862 q 0.006,0.923759 0.37624,1.630221 0.36986,0.68498 1.1862,0.679462 0.85931,-0.0058 1.19839,-0.69558 0.33893,-0.711255 0.33269,-1.635013 l -0.16961,-25.091863 4.64028,-0.03137 0.1696,25.091862 q 0.0131,1.933448 -0.72837,3.485289 -0.71996,1.551696 -2.11024,2.463411 -1.3688,0.911569 -3.30224,0.924638 z m 8.31334,-0.319362 3.57189,-31.377728 4.31176,0.490831 2.40781,16.836542 0.21899,1.495224 0.25614,0.02916 2.0265,-17.802059 4.22639,0.481112 -3.57189,31.377728 -3.88486,-0.442234 -2.83471,-16.885139 -0.21899,-1.495224 -0.25615,-0.02916 -2.0265,17.802058 z m 15.54816,1.900871 7.76315,-30.611335 4.58129,1.161831 q 2.16569,0.54923 3.48547,1.637483 1.31977,1.088252 1.80299,3.02819 0.48321,1.939937 0.12367,5.018114 -0.33871,3.083459 -1.48997,7.623099 -1.15655,4.560464 -2.32823,7.43268 -1.14556,2.856673 -2.49487,4.331878 -1.34402,1.454381 -3.0229,1.782163 -1.67361,0.306957 -3.83931,-0.242272 z m 5.6387,-3.357285 q 1.66592,0.422484 2.68582,-0.715156 1.0199,-1.13764 1.78355,-3.537085 0.76366,-2.399445 1.6139,-5.752115 0.86082,-3.394318 1.32237,-5.826049 0.46683,-2.452556 0.081,-3.902378 -0.35977,-1.465365 -2.00487,-1.882568 z"
             id="text4"
             ariaLabel="SOUND" />
          <path
             d="m 73.506548,126.81672 -7.591555,-26.41077 9.234785,-2.654459 1.14648,3.988569 -5.35402,1.53896 1.993429,6.93508 3.593302,-1.03287 1.14648,3.98857 -3.593302,1.03286 3.305167,11.49857 z m 15.000664,-3.27427 q -1.679865,0.26828 -3.003593,-0.31541 -1.305268,-0.58663 -2.14518,-1.81552 -0.839912,-1.22888 -1.10525,-2.89029 l -3.443491,-21.561349 3.987373,-0.63681 3.443491,21.561349 q 0.126772,0.79378 0.537884,1.35285 0.408163,0.5406 1.109645,0.42857 0.738403,-0.11793 0.939421,-0.75582 0.198071,-0.65636 0.0713,-1.45014 l -3.443491,-21.561349 3.987373,-0.63681 3.44349,21.561349 q 0.265338,1.66141 -0.168494,3.09372 -0.415372,1.42936 -1.491452,2.39631 -1.05762,0.96401 -2.719025,1.22935 z m 11.884538,-1.15862 q -1.662576,0.063 -2.785254,-0.437 -1.123386,-0.51866 -1.798157,-1.54072 -0.674771,-1.02205 -1.010888,-2.4872 -0.317436,-1.46586 -0.387497,-3.31524 l 3.946134,-0.52364 q 0.03397,0.89667 0.121856,1.73517 0.105861,0.81912 0.299463,1.48525 0.211576,0.64674 0.562688,1.0263 0.369793,0.37884 0.911535,0.35832 0.89667,-0.034 1.23914,-0.87007 0.34177,-0.85478 0.29718,-2.03166 -0.0446,-1.17688 -0.70917,-2.4238 -0.66458,-1.24693 -1.567057,-2.35389 -1.530687,-1.88759 -2.695827,-3.5084 -1.146459,-1.62153 -1.82378,-3.20471 -0.658641,-1.58389 -0.725164,-3.33986 -0.05237,-1.382366 0.258686,-2.55401 0.310347,-1.190324 0.950295,-2.075108 0.657921,-0.904173 1.610912,-1.426668 0.952991,-0.522496 2.204591,-0.569911 1.550494,-0.05874 2.635104,0.42398 1.10329,0.482011 1.79391,1.428633 0.7093,0.945914 1.05914,2.279595 0.36782,1.314291 0.42939,2.939499 l -3.94613,0.52365 q -0.0262,-0.69119 -0.1271,-1.37954 -0.0829,-0.707737 -0.27299,-1.280466 -0.19007,-0.572729 -0.52108,-0.91563 -0.33102,-0.342901 -0.835399,-0.323793 -0.784585,0.02972 -1.057998,0.713548 -0.27412,0.665144 -0.22812,1.879381 0.05945,1.56917 0.955273,2.99441 0.895824,1.42524 2.389154,3.31424 1.78698,2.23332 2.92467,4.11708 1.15636,1.88305 1.24483,4.21813 0.0559,1.47577 -0.21354,2.75808 -0.27016,1.26363 -0.92596,2.22384 -0.63711,0.95951 -1.68209,1.52291 -1.0263,0.56268 -2.52075,0.6193 z m 6.51386,-0.35325 1.28783,-27.449986 4.03347,0.189234 -1.28784,27.449982 z m 10.8909,1.20877 q -1.66669,-0.22977 -2.76319,-1.1735 -1.07798,-0.94119 -1.54233,-2.3639 -0.44582,-1.42016 -0.21605,-3.08686 l 2.2109,-16.03732 q 0.23233,-1.685216 1.04323,-2.913252 0.83198,-1.244002 2.12441,-1.858402 1.31095,-0.611846 2.97765,-0.382076 1.66669,0.229771 2.74467,1.170955 1.0965,0.943737 1.54233,2.363896 0.46434,1.422709 0.23457,3.089409 l -2.2109,16.03732 q -0.22977,1.6667 -1.06175,2.9107 -0.81346,1.24656 -2.12441,1.8584 -1.29243,0.6144 -2.95913,0.38463 z m 0.53613,-3.88896 q 0.74076,0.10212 1.12131,-0.46815 0.3831,-0.58879 0.48778,-1.34806 l 2.2109,-16.03733 q 0.10467,-0.75927 -0.1259,-1.4138 -0.22802,-0.673037 -0.93173,-0.770051 -0.6852,-0.09446 -1.10534,0.489225 -0.39907,0.567726 -0.50375,1.326996 l -2.2109,16.03732 q -0.10467,0.75928 0.12335,1.43232 0.23057,0.65452 0.93428,0.75153 z m 6.38646,4.59095 7.45226,-26.450408 3.63468,1.024053 -0.28459,14.796915 -0.0208,1.31481 0.21592,0.0608 4.22802,-15.006555 3.56271,1.003775 -7.45226,26.45041 -3.27482,-0.92266 -0.0753,-14.89831 0.0208,-1.31481 -0.21593,-0.0608 -4.22802,15.00655 z"
             id="text6"
             style="font-size:37.388px;line-height:1.3;font-family:'League Gothic';-inkscape-font-specification:'League Gothic';text-align:center;letter-spacing:-1.25148px;word-spacing:0px;text-anchor:middle;white-space:pre;fill:#000000;fill-opacity:1;fill-rule:nonzero;stroke:none;stroke-width:2.64583;stroke-miterlimit:3.2;stroke-dasharray:none;stroke-dashoffset:0;stroke-opacity:0;paint-order:markers stroke fill"
             ariaLabel="FUSION" />
          <path
             d="m 84.113,151.13885 -4.174022,-24.45792 8.551955,-1.45949 0.630363,3.69365 -4.958138,0.84616 1.096036,6.42229 3.327609,-0.5679 0.630362,3.69365 -3.327609,0.56789 1.817262,10.64835 z m 10.042174,-1.58347 -1.527133,-24.7645 8.322219,-0.5132 0.23063,3.73995 -4.683355,0.2888 0.411391,6.67125 3.369324,-0.20777 0.22439,3.63886 -3.369319,0.20778 0.43009,6.97449 4.683359,-0.28881 0.23062,3.73995 z m 15.400386,-0.0532 q -1.50036,-0.0742 -2.47082,-0.61223 -0.96962,-0.55491 -1.49612,-1.5273 -0.5265,-0.97238 -0.71353,-2.31667 -0.17017,-1.34345 -0.0877,-3.01239 l 3.59056,-0.16048 q -0.04,0.80919 -0.0269,1.5703 0.0308,0.74508 0.15248,1.35947 0.13941,0.59837 0.42535,0.96739 0.3028,0.36985 0.79169,0.39402 0.80918,0.04 1.18301,-0.68508 0.37467,-0.74194 0.42717,-1.804 0.0525,-1.06205 -0.44714,-2.2359 -0.49964,-1.17385 -1.22427,-2.24052 -1.22825,-1.81824 -2.1487,-3.36778 -0.90359,-1.5487 -1.38823,-3.02599 -0.46778,-1.47646 -0.38944,-3.06111 0.0617,-1.24749 0.43365,-2.27686 0.37281,-1.04622 1.01803,-1.79168 0.66292,-0.76149 1.5612,-1.15646 0.89829,-0.39497 2.02778,-0.33913 1.39921,0.0692 2.33678,0.5887 0.95443,0.52036 1.50112,1.42615 0.56355,0.90662 0.77328,2.13373 0.22741,1.21109 0.1549,2.67773 l -3.59056,0.16048 q 0.0308,-0.62375 -0.006,-1.25083 -0.0189,-0.6431 -0.14479,-1.1732 -0.12589,-0.5301 -0.39664,-0.86457 -0.27075,-0.33447 -0.72592,-0.35697 -0.70804,-0.035 -1.00777,0.55855 -0.29889,0.57669 -0.35307,1.67246 -0.07,1.41608 0.6236,2.76851 0.6936,1.35242 1.88814,3.169 1.43157,2.14937 2.30663,3.93325 0.89192,1.78472 0.78775,3.89197 -0.0658,1.33178 -0.4091,2.46396 -0.34243,1.11532 -1.00784,1.92738 -0.64856,0.8129 -1.63281,1.23742 -0.96738,0.42535 -2.31602,0.35868 z m 9.42045,0.62603 3.43244,-20.78295 -3.39722,-0.56107 0.61058,-3.69697 10.39148,1.71622 -0.61058,3.69697 -3.39721,-0.56107 -3.43244,20.78295 z"
             id="text7"
             style="font-size:33.7572px;line-height:1.3;font-family:'League Gothic';-inkscape-font-specification:'League Gothic';text-align:center;letter-spacing:0px;word-spacing:0px;text-anchor:middle;white-space:pre;fill:#000000;fill-opacity:1;fill-rule:nonzero;stroke:none;stroke-width:2.64583;stroke-miterlimit:3.2;stroke-dasharray:none;stroke-dashoffset:0;stroke-opacity:0;paint-order:markers stroke fill"
             ariaLabel="FEST" />
        </g>
      </g>
    </g>
  </g>
</svg>
